<svg width="274" height="63" viewBox="0 0 274 63" fill="none" xmlns="http://www.w3.org/2000/svg">
<rect x="0.5" y="0.5" width="273" height="62" rx="31" fill="#373535"/>
<path d="M103.606 39.22C102.403 39.22 101.252 39.0513 100.152 38.714C99.0521 38.362 98.1794 37.9147 97.5341 37.372L98.5241 35.15C99.1401 35.634 99.9027 36.0373 100.812 36.36C101.721 36.6827 102.653 36.844 103.606 36.844C104.413 36.844 105.065 36.756 105.564 36.58C106.063 36.404 106.429 36.1693 106.664 35.876C106.899 35.568 107.016 35.2233 107.016 34.842C107.016 34.3727 106.847 33.9987 106.51 33.72C106.173 33.4267 105.733 33.1993 105.19 33.038C104.662 32.862 104.068 32.7007 103.408 32.554C102.763 32.4073 102.11 32.2387 101.45 32.048C100.805 31.8427 100.211 31.586 99.6681 31.278C99.1401 30.9553 98.7074 30.53 98.3701 30.002C98.0327 29.474 97.8641 28.7993 97.8641 27.978C97.8641 27.142 98.0841 26.3793 98.5241 25.69C98.9787 24.986 99.6607 24.4287 100.57 24.018C101.494 23.5927 102.66 23.38 104.068 23.38C104.992 23.38 105.909 23.4973 106.818 23.732C107.727 23.9667 108.519 24.304 109.194 24.744L108.292 26.966C107.603 26.5553 106.891 26.2547 106.158 26.064C105.425 25.8587 104.721 25.756 104.046 25.756C103.254 25.756 102.609 25.8513 102.11 26.042C101.626 26.2327 101.267 26.482 101.032 26.79C100.812 27.098 100.702 27.45 100.702 27.846C100.702 28.3153 100.863 28.6967 101.186 28.99C101.523 29.2687 101.956 29.4887 102.484 29.65C103.027 29.8113 103.628 29.9727 104.288 30.134C104.948 30.2807 105.601 30.4493 106.246 30.64C106.906 30.8307 107.5 31.08 108.028 31.388C108.571 31.696 109.003 32.114 109.326 32.642C109.663 33.17 109.832 33.8373 109.832 34.644C109.832 35.4653 109.605 36.228 109.15 36.932C108.71 37.6213 108.028 38.1787 107.104 38.604C106.18 39.0147 105.014 39.22 103.606 39.22ZM117.777 39V26.02H112.673V23.6H125.741V26.02H120.637V39H117.777ZM127.136 39L134.066 23.6H136.882L143.834 39H140.842L134.88 25.118H136.024L130.084 39H127.136ZM130.326 35.436L131.096 33.192H139.412L140.182 35.436H130.326ZM147.993 39V23.6H154.329C155.693 23.6 156.859 23.82 157.827 24.26C158.809 24.7 159.565 25.3307 160.093 26.152C160.621 26.9733 160.885 27.9487 160.885 29.078C160.885 30.2073 160.621 31.1827 160.093 32.004C159.565 32.8107 158.809 33.434 157.827 33.874C156.859 34.2993 155.693 34.512 154.329 34.512H149.577L150.853 33.214V39H147.993ZM158.069 39L154.175 33.412H157.233L161.149 39H158.069ZM150.853 33.522L149.577 32.158H154.197C155.458 32.158 156.404 31.8867 157.035 31.344C157.68 30.8013 158.003 30.046 158.003 29.078C158.003 28.0953 157.68 27.34 157.035 26.812C156.404 26.284 155.458 26.02 154.197 26.02H149.577L150.853 24.612V33.522ZM169.194 39V26.02H164.09V23.6H177.158V26.02H172.054V39H169.194Z" fill="white"/>
<rect x="0.5" y="0.5" width="273" height="62" rx="31" stroke="#373535"/>
</svg>
